<?xml version="1.0" encoding="UTF-8"?>
<svg xmlns="http://www.w3.org/2000/svg" version="1.1" viewBox="0 0 115.2 69.7">
  <defs>
    <style>
      .cls-1 {
        fill-rule: evenodd;
      }
    </style>
  </defs>
  <!-- Generator: Adobe Illustrator 28.6.0, SVG Export Plug-In . SVG Version: 1.2.0 Build 709)  -->
  <g>
    <g id="Layer_1">
      <path class="cls-1" d="M24.4.4l40.2,14.3h0c3.8,1.5,5.9,5.8,4.6,9.7h0s-14.3,40.3-14.3,40.3h0c-1.5,3.9-5.8,5.9-9.7,4.6h0S5,54.9,5,54.9h0c-3.8-1.5-5.9-5.8-4.6-9.7h0S14.7,5,14.7,5h0C16.2,1.1,20.5-.9,24.4.4h0ZM61.4,56.2l10.8-30.7h0c1.7-4.4,0-9.3-3.5-12.2l-1.2-1,19.2-9.1c4.4-2.1,9.8-.1,11.8,4.2l15.8,33.2c2.1,4.5.1,9.8-4.2,11.8l-33.2,15.8c-4.5,2.1-9.7.3-11.8-4.2l-3.7-7.8ZM37.5,33.5c-.7-1.4-2.5-2.1-3.9-1.4-1.6.7-2.1,2.5-1.4,3.9.7,1.6,2.3,2.1,3.9,1.4,1.5-.7,2.1-2.4,1.4-3.9ZM17.2,46.4c1.5-.7,2.1-2.4,1.4-3.9-.7-1.4-2.5-2.1-3.9-1.4-1.6.7-2.1,2.5-1.4,3.9.7,1.6,2.3,2.1,3.9,1.4ZM42.6,51c-1.6.7-2.1,2.5-1.4,3.9.7,1.6,2.3,2.1,3.9,1.4,1.5-.7,2.1-2.4,1.4-3.9-.7-1.4-2.5-2.1-3.9-1.4ZM55.1,28.4c1.5-.7,2.1-2.4,1.4-3.9-.7-1.4-2.5-2.1-3.9-1.4-1.6.7-2.1,2.5-1.4,3.9.7,1.6,2.3,2.1,3.9,1.4ZM24.6,13.1c-1.6.7-2.1,2.5-1.4,3.9.7,1.6,2.3,2.1,3.9,1.4,1.5-.7,2.1-2.4,1.4-3.9-.7-1.4-2.5-2.1-3.9-1.4ZM87.2,4.1c3.9-1.8,8.7-.1,10.5,3.7l15.8,33.2c1.9,4,.1,8.7-3.7,10.5l-33.2,15.8c-4,1.9-8.6.3-10.5-3.7l-3.5-7.4,10.7-30.3c1.7-4.5.3-9.4-3-12.6-.3-.3-.5-.5-.8-.7l17.8-8.4ZM83.1,38.3c1.5-.7,2.1-2.4,1.4-3.9-.7-1.4-2.5-2.1-3.9-1.4-1.6.7-2.1,2.5-1.4,3.9.7,1.6,2.3,2.1,3.9,1.4ZM64.3,15.6L24.1,1.3c-3.4-1.1-7.1.7-8.4,4L1.3,45.6c-1.1,3.4.7,7.1,4,8.4l40.2,14.3c3.4,1.1,7.1-.7,8.4-4l14.3-40.2c1.1-3.4-.7-7.1-4-8.4ZM33.2,31.2c1.9-.9,4.3,0,5.2,1.9,1,2.1,0,4.3-1.9,5.2-2.1,1-4.3.2-5.2-1.9-.9-1.9-.2-4.3,1.9-5.2ZM19.5,42c1,2.1,0,4.3-1.9,5.2-2.1,1-4.3.2-5.2-1.9-.9-1.9-.2-4.3,1.9-5.2,1.9-.9,4.3,0,5.2,1.9ZM40.3,55.4c-.9-1.9-.2-4.3,1.9-5.2,1.9-.9,4.3,0,5.2,1.9,1,2.1,0,4.3-1.9,5.2-2.1,1-4.3.2-5.2-1.9ZM57.4,24c1,2.1,0,4.3-1.9,5.2-2.1,1-4.3.2-5.2-1.9-.9-1.9-.2-4.3,1.9-5.2,1.9-.9,4.3,0,5.2,1.9ZM22.3,17.4c-.9-1.9-.2-4.3,1.9-5.2,1.9-.9,4.3,0,5.2,1.9,1,2.1,0,4.3-1.9,5.2-2.1,1-4.3.2-5.2-1.9ZM85.4,34c1,2.1,0,4.3-1.9,5.2-2.1,1-4.3.2-5.2-1.9-.9-1.9-.2-4.3,1.9-5.2,1.9-.9,4.3,0,5.2,1.9Z"/>
    </g>
  </g>
</svg>